<svg xmlns="http://www.w3.org/2000/svg" xmlns:xlink="http://www.w3.org/1999/xlink" width="3020" height="770" viewBox="0 0 3020 770">
  <defs>
    <clipPath id="clip-_0._Digidol_Original_-_Light_1">
      <rect width="3020" height="770"/>
    </clipPath>
  </defs>
  <g id="_0._Digidol_Original_-_Light_1" data-name="0. Digidol Original - Light – 1" clip-path="url(#clip-_0._Digidol_Original_-_Light_1)">
    <g id="Digidol" transform="translate(-559.61 -1105.293)">
      <g id="Emblem" transform="translate(363.993 1141.293)">
        <g id="M" transform="translate(334.86 -12)">
          <rect id="Rectangle_1" data-name="Rectangle 1" width="27.086" height="79.47" rx="13.543" transform="translate(118.401 0)" fill="#4491e8"/>
          <rect id="Rectangle_2" data-name="Rectangle 2" width="80.355" height="79.47" rx="39.735" transform="translate(0 0)" fill="#4491e8"/>
          <rect id="Rectangle_3" data-name="Rectangle 3" width="27.086" height="79.47" rx="13.543" transform="translate(183.532 0)" fill="#4491e8"/>
          <rect id="Rectangle_4" data-name="Rectangle 4" width="80.355" height="79.47" rx="39.735" transform="translate(248.663 0)" fill="#4491e8"/>
          <rect id="Rectangle_6" data-name="Rectangle 6" width="26.183" height="79.47" rx="13.092" transform="translate(367.065 0)" fill="#4491e8"/>
          <rect id="Rectangle_7" data-name="Rectangle 7" width="80.355" height="79.47" rx="39.735" transform="translate(495.522 0)" fill="#4491e8"/>
          <rect id="Rectangle_35" data-name="Rectangle 35" width="26.183" height="79.47" rx="13.092" transform="translate(431.293)" fill="#4491e8"/>
          <rect id="Rectangle_36" data-name="Rectangle 36" width="26.183" height="79.47" rx="13.092" transform="translate(613.923)" fill="#4491e8"/>
        </g>
        <g id="S" transform="translate(516.996 110.335)">
          <rect id="Rectangle_1-2" data-name="Rectangle 1" width="27.086" height="79.47" rx="13.543" transform="translate(118.4 0)" fill="#47bfbe"/>
          <rect id="Rectangle_2-2" data-name="Rectangle 2" width="80.355" height="79.47" rx="39.735" transform="translate(0 0)" fill="#47bfbe"/>
          <rect id="Rectangle_3-2" data-name="Rectangle 3" width="27.086" height="79.47" rx="13.543" transform="translate(183.532 0)" fill="#47bfbe"/>
          <rect id="Rectangle_37" data-name="Rectangle 37" width="27.086" height="79.47" rx="13.543" transform="translate(248.662)" fill="#47bfbe"/>
          <rect id="Rectangle_38" data-name="Rectangle 38" width="80.355" height="79.47" rx="39.735" transform="translate(313.792)" fill="#47bfbe"/>
          <rect id="Rectangle_39" data-name="Rectangle 39" width="80.355" height="79.47" rx="39.735" transform="translate(432.193)" fill="#47bfbe"/>
          <rect id="Rectangle_40" data-name="Rectangle 40" width="27.086" height="79.47" rx="13.543" transform="translate(550.593)" fill="#47bfbe"/>
          <rect id="Rectangle_41" data-name="Rectangle 41" width="27.086" height="79.47" rx="13.543" transform="translate(615.724)" fill="#47bfbe"/>
        </g>
        <g id="P" transform="translate(280.238 231.487)">
          <rect id="Rectangle_1-3" data-name="Rectangle 1" width="27.086" height="79.47" rx="13.543" transform="translate(118.4 0)" fill="#c6d74b"/>
          <rect id="Rectangle_2-3" data-name="Rectangle 2" width="80.355" height="79.47" rx="39.735" transform="translate(0 0)" fill="#c6d74b"/>
          <rect id="Rectangle_3-3" data-name="Rectangle 3" width="27.086" height="79.47" rx="13.543" transform="translate(183.53 0)" fill="#c6d74b"/>
          <rect id="Rectangle_37-2" data-name="Rectangle 37" width="27.086" height="79.47" rx="13.543" transform="translate(248.662)" fill="#c6d74b"/>
          <rect id="Rectangle_38-2" data-name="Rectangle 38" width="80.355" height="79.47" rx="39.735" transform="translate(313.792)" fill="#c6d74b"/>
          <rect id="Rectangle_39-2" data-name="Rectangle 39" width="80.355" height="79.47" rx="39.735" transform="translate(432.192)" fill="#c6d74b"/>
          <rect id="Rectangle_42" data-name="Rectangle 42" width="80.355" height="79.47" rx="39.735" transform="translate(550.593)" fill="#c6d74b"/>
          <rect id="Rectangle_43" data-name="Rectangle 43" width="80.355" height="79.47" rx="39.735" transform="translate(668.993)" fill="#c6d74b"/>
        </g>
        <g id="A" transform="translate(463.729 352.64)">
          <rect id="Rectangle_1-4" data-name="Rectangle 1" width="27.086" height="79.47" rx="13.543" transform="translate(118.4 0)" fill="#e82e6d"/>
          <rect id="Rectangle_2-4" data-name="Rectangle 2" width="80.355" height="79.47" rx="39.735" transform="translate(0 0)" fill="#e82e6d"/>
          <rect id="Rectangle_3-4" data-name="Rectangle 3" width="27.086" height="79.47" rx="13.543" transform="translate(183.53 0)" fill="#e82e6d"/>
          <rect id="Rectangle_38-3" data-name="Rectangle 38" width="80.355" height="79.47" rx="39.735" transform="translate(248.662)" fill="#e82e6d"/>
          <rect id="Rectangle_39-3" data-name="Rectangle 39" width="80.355" height="79.47" rx="39.735" transform="translate(367.062)" fill="#e82e6d"/>
          <rect id="Rectangle_42-2" data-name="Rectangle 42" width="80.355" height="79.47" rx="39.735" transform="translate(485.462)" fill="#e82e6d"/>
          <rect id="Rectangle_43-2" data-name="Rectangle 43" width="80.355" height="79.47" rx="39.735" transform="translate(603.862)" fill="#e82e6d"/>
          <rect id="Rectangle_44" data-name="Rectangle 44" width="27.086" height="79.47" rx="13.543" transform="translate(722.263)" fill="#e82e6d"/>
        </g>
        <g id="R" transform="translate(215.617 473.793)">
          <rect id="Rectangle_1-5" data-name="Rectangle 1" width="27.086" height="79.47" rx="13.543" transform="translate(118.4 0)" fill="#ee7831"/>
          <rect id="Rectangle_2-5" data-name="Rectangle 2" width="80.355" height="79.47" rx="39.735" transform="translate(0 0)" fill="#ee7831"/>
          <rect id="Rectangle_3-5" data-name="Rectangle 3" width="27.086" height="79.47" rx="13.543" transform="translate(183.53 0)" fill="#ee7831"/>
          <rect id="Rectangle_44-2" data-name="Rectangle 44" width="27.086" height="79.47" rx="13.543" transform="translate(248.662)" fill="#ee7831"/>
          <rect id="Rectangle_45" data-name="Rectangle 45" width="80.355" height="79.47" rx="39.735" transform="translate(313.792)" fill="#ee7831"/>
          <rect id="Rectangle_46" data-name="Rectangle 46" width="80.355" height="79.47" rx="39.735" transform="translate(432.192)" fill="#ee7831"/>
          <rect id="Rectangle_47" data-name="Rectangle 47" width="27.086" height="79.47" rx="13.543" transform="translate(550.592)" fill="#ee7831"/>
          <rect id="Rectangle_48" data-name="Rectangle 48" width="80.355" height="79.47" rx="39.735" transform="translate(615.724)" fill="#ee7831"/>
        </g>
        <g id="C" transform="translate(463.729 594.946)">
          <rect id="Rectangle_1-6" data-name="Rectangle 1" width="27.086" height="79.47" rx="13.543" transform="translate(118.4 0)" fill="#ecd138"/>
          <rect id="Rectangle_2-6" data-name="Rectangle 2" width="80.355" height="79.47" rx="39.735" transform="translate(0 0)" fill="#ecd138"/>
          <rect id="Rectangle_3-6" data-name="Rectangle 3" width="27.086" height="79.47" rx="13.543" transform="translate(183.532 0)" fill="#ecd138"/>
          <rect id="Rectangle_38-4" data-name="Rectangle 38" width="80.355" height="79.47" rx="39.735" transform="translate(248.662)" fill="#ecd138"/>
          <rect id="Rectangle_39-4" data-name="Rectangle 39" width="80.355" height="79.47" rx="39.735" transform="translate(367.062)" fill="#ecd138"/>
          <rect id="Rectangle_42-3" data-name="Rectangle 42" width="80.355" height="79.47" rx="39.735" transform="translate(485.462)" fill="#ecd138"/>
          <rect id="Rectangle_44-3" data-name="Rectangle 44" width="27.086" height="79.47" rx="13.543" transform="translate(603.862)" fill="#ecd138"/>
          <rect id="Rectangle_49" data-name="Rectangle 49" width="27.086" height="79.47" rx="13.543" transform="translate(668.993)" fill="#ecd138"/>
        </g>
      </g>
      <path id="Digidol-2" data-name="Digidol" d="M238.915-471.1H326.4V-13.46Q275.93,8.076,196.516,8.076q-84.125,0-127.2-46.437T26.247-172.288q0-76.722,41.726-124.5,42.4-47.783,115.083-47.783,33.65,0,55.859,8.076ZM193.151-74.7q25.574,0,45.764-5.384V-253.048q-15.479-8.749-49.129-8.749-42.4,0-58.888,21.2T114.41-168.25q0,50.475,18.171,72.011T193.151-74.7Zm293.428-370.15A49.413,49.413,0,0,1,471.1-408.175q-15.479,15.143-37.688,15.143A51.074,51.074,0,0,1,396.4-408.175a49.413,49.413,0,0,1-15.479-36.678A48.333,48.333,0,0,1,396.4-481.195,51.677,51.677,0,0,1,433.412-496q22.209,0,37.688,14.806A48.333,48.333,0,0,1,486.579-444.853Zm-99.6,142q0-22.882,13.46-31.631T436.1-343.23a114.974,114.974,0,0,1,28.6,3.365q13.123,3.365,16.488,4.711V0h-94.22Zm441.488-20.19V13.46q0,67.3-43.072,104.315T666.943,154.79q-67.3,0-119.121-20.863l13.46-82.106q43.072,20.19,104.988,20.19,74.7,0,74.7-58.551V0q-22.209,8.076-55.859,8.076-74.7,0-115.756-46.1T528.3-167.577q0-85.471,44.754-131.235t131.572-45.764Q782.026-344.576,828.463-323.04ZM616.468-168.25q0,51.148,17.161,72.348t62.252,21.2q32.3,0,45.091-8.749V-255.74Q722.8-261.8,696.555-261.8q-45.764,0-62.925,20.526T616.468-168.25Zm372.169-276.6a49.413,49.413,0,0,1-15.479,36.678q-15.479,15.143-37.688,15.143a51.074,51.074,0,0,1-37.015-15.143,49.413,49.413,0,0,1-15.479-36.678,48.333,48.333,0,0,1,15.479-36.342A51.677,51.677,0,0,1,935.47-496q22.209,0,37.688,14.806A48.333,48.333,0,0,1,988.637-444.853Zm-99.6,142q0-22.882,13.46-31.631t35.669-8.749a114.975,114.975,0,0,1,28.6,3.365q13.123,3.365,16.489,4.711V0h-94.22Zm354-168.25h87.49V-13.46Q1280.046,8.076,1200.632,8.076q-84.125,0-127.2-46.437t-43.072-133.927q0-76.722,41.726-124.5,42.4-47.783,115.083-47.783,33.65,0,55.859,8.076ZM1197.267-74.7q25.574,0,45.764-5.384V-253.048q-15.479-8.749-49.129-8.749-42.4,0-58.888,21.2t-16.488,72.347q0,50.475,18.171,72.011T1197.267-74.7Zm327.078,0q42.4,0,57.205-22.882t14.806-70.665q0-47.783-14.806-70.665T1524.345-261.8q-42.4,0-57.878,23.555t-15.479,69.992q0,47.11,15.479,70.665Q1481.273-74.7,1524.345-74.7Zm0,82.779q-161.52,0-161.52-176.326,0-82.779,42.4-129.552t119.121-46.774q160.174,0,160.174,176.326,0,83.452-41.726,129.889T1524.345,8.076Zm188.44-109.7V-471.1h87.49v349.96q-2.019,24.228,5.384,35.333t17.834,9.422q10.432-1.682,19.854-3.7L1856.134,0q-17.5,6.73-43.072,6.73-47.11,0-73.694-27.257T1712.785-101.623Z" transform="translate(1689 1691)" fill="#5b2485"/>
    </g>
  </g>
</svg>
